<svg width="1286" height="180" viewBox="0 0 1286 180" fill="none" xmlns="http://www.w3.org/2000/svg">
<g clip-path="url(#clip0_39_2495)">
<path d="M7.28404 94.0018C7.28404 94.0018 6.32121 90.4762 8.3306 88.947C9.33529 88.6072 10.4237 88.5223 15.0704 90.901C31.0618 99.184 57.9374 109.761 80.6687 100.288C103.442 90.816 88.1202 123.481 88.1202 123.481C88.1202 123.481 83.306 143.488 55.7187 137.498C32.6945 132.529 8.03756 109.209 7.28404 94.0018Z" fill="white" fill-opacity="0.5"/>
<path d="M12.349 0C12.349 0 26.4566 12.1909 78.7008 55.9848C120.521 85.8037 92.0549 131.169 75.896 136.734C76.1472 115.07 73.0075 113.669 32.3592 80.7065C-7.20068 48.6787 -6.11226 31.0508 12.349 0Z" fill="white"/>
<path d="M8.4142 88.9045C-1.59089 91.8779 -3.01421 120.805 21.7683 142.596C46.802 164.641 46.802 164.641 56.6815 179.933C65.3888 172.287 76.3986 144.634 52.8301 126.03C15.8657 100.331 8.4142 88.9045 8.4142 88.9045Z" fill="white"/>
</g>
<g clip-path="url(#clip1_39_2495)">
<path d="M283.031 75.1919C280.471 72.3009 277.382 70.1108 273.851 68.6215C269.878 66.9569 265.553 66.1685 261.227 66.2561C256.284 66.1685 251.341 67.1321 246.75 69.0595C242.866 70.8116 239.335 73.4398 236.51 76.6812C233.774 80.0103 231.743 83.8649 230.596 87.9824C229.272 92.3628 228.654 97.0059 228.654 101.561C228.654 106.205 229.272 110.848 230.684 115.316C231.92 119.433 234.127 123.2 237.128 126.354C240.218 129.595 244.102 132.048 248.251 133.625C253.901 135.553 259.903 136.166 265.818 135.465C276.94 134.063 281.707 129.858 285.062 125.478C290.888 117.681 289.211 116.367 289.211 116.367H276.499C275.087 116.367 272.085 122.324 262.728 122.324C256.284 122.324 253.812 121.36 250.546 118.382C247.633 115.754 245.956 111.549 245.603 105.854H289.034C290.27 105.854 290.535 105.066 290.623 103.927C290.888 99.0208 291.153 92.3628 288.769 85.0914C287.445 81.412 285.503 78.0829 283.031 75.1919ZM245.691 93.414C246.397 89.2089 247.81 85.7923 250.105 83.3393C252.576 80.6235 256.107 79.3094 260.786 79.3094C262.905 79.2218 265.023 79.6598 266.877 80.5359C268.466 81.3244 269.878 82.4632 271.114 83.8649C272.262 85.3542 273.145 87.0188 273.674 88.8585C274.116 90.3478 274.38 91.8371 274.469 93.414H245.691Z" fill="white"/>
<path d="M482.71 44.2671V81.2369H445.988V48.9978C445.988 46.3696 443.869 44.2671 441.221 44.2671H428.774V132.399C428.774 135.027 430.893 137.13 433.541 137.13H445.988V96.13H482.71V132.311C482.71 134.94 484.829 137.042 487.477 137.042H499.924V48.9978C499.924 46.3696 497.805 44.2671 495.157 44.2671H482.71Z" fill="white"/>
<path d="M554.831 66.0811V110.059C554.831 114.089 552.801 117.856 549.27 119.871C539.56 125.478 529.408 118.47 529.408 109.271V70.8994C529.408 68.2712 527.289 66.1687 524.641 66.1687H512.194V110.935C512.194 125.39 524.023 137.13 538.589 137.13H545.651C560.128 137.13 572.045 125.39 572.045 110.935V70.8994C572.045 68.2712 569.926 66.1687 567.278 66.1687H554.831V66.0811Z" fill="white"/>
<path d="M617.065 66.0811C598.969 66.0811 584.227 78.8716 584.227 96.7432V106.468C584.227 124.427 598.969 137.13 617.065 137.13C635.162 137.13 649.904 124.427 649.904 106.468V96.7432C649.816 78.8716 635.162 66.0811 617.065 66.0811ZM632.602 107.606C632.602 116.017 625.628 121.711 617.065 121.711C608.591 121.711 601.529 116.104 601.529 107.606V95.6044C601.529 87.1942 608.503 81.4998 617.065 81.4998C625.54 81.4998 632.602 87.1066 632.602 95.6044V107.606Z" fill="white"/>
<path d="M217.356 66.2562V64.066V63.4528C217.356 58.284 217.356 53.1152 217.356 48.0341C217.356 45.6687 215.856 43.829 213.56 43.2157C213.119 43.1281 212.678 43.0405 212.325 43.0405C208.264 43.0405 204.292 43.0405 200.319 43.0405C200.231 43.0405 200.054 43.0405 199.966 43.0405V63.9784V64.6793V70.5489V103.138C192.198 91.9248 184.518 80.7112 176.838 69.4976L172.777 63.628C168.275 56.9699 163.685 50.3118 159.095 43.6538C158.83 43.2157 158.477 43.0405 158.035 43.0405C153.357 43.0405 148.766 43.0405 144.176 43.0405H143.558V63.9784V74.9292C143.558 93.7646 143.558 112.512 143.558 131.348C143.558 133.45 144.088 135.202 145.853 136.516C145.853 136.516 146.383 136.867 147.354 137.13H160.948V136.516V128.632V75.3672C161.037 75.6301 161.125 75.7177 161.213 75.8929C170.482 89.7347 179.663 103.576 188.932 117.418C192.374 122.587 195.729 127.668 199.172 132.837C200.054 134.151 200.849 135.553 202.261 136.516C202.261 136.516 202.879 136.954 203.762 137.13H217.268V136.516V127.581L217.356 66.2562Z" fill="white"/>
<path d="M381.547 66.4314C379.34 75.3672 377.045 84.2155 374.838 93.0637C372.631 101.912 370.336 110.76 368.394 119.696C368.306 119.608 368.306 119.521 368.306 119.433C368.129 118.557 368.041 117.681 367.864 116.805C366.805 111.811 365.834 106.818 364.598 101.824C361.95 90.8735 359.125 79.9228 356.388 68.972C356.124 68.0083 355.859 67.1323 355.682 66.1686C355.506 66.1686 355.417 66.1686 355.241 66.1686C350.562 66.1686 345.884 66.1686 341.205 66.081C340.852 66.081 340.675 66.1686 340.587 66.519C337.762 77.207 334.937 87.8073 332.201 98.4953C330.612 104.803 329.023 111.111 327.434 117.331C327.258 118.119 327.081 118.82 326.904 119.608C326.904 119.696 326.816 119.784 326.728 119.871C326.64 119.784 326.64 119.696 326.551 119.696C326.551 119.608 326.551 119.608 326.551 119.521C325.492 114.352 324.521 109.183 323.373 104.102C320.902 93.1513 318.43 82.2005 315.958 71.2497C315.252 68.2711 312.692 66.081 309.602 65.9934C305.542 65.9058 301.569 65.9058 297.509 65.9058C297.42 65.9058 297.42 65.9058 297.244 65.9058C303.776 89.1214 310.22 112.249 316.753 135.465L317.018 136.341C317.106 136.692 317.282 136.692 317.547 136.692C322.844 136.692 328.052 136.779 333.349 136.779C333.437 136.779 333.525 136.779 333.613 136.779C333.702 136.692 333.878 136.692 333.878 136.604V136.516L334.408 134.939C338.91 118.995 343.942 103.226 347.473 87.0189C347.561 87.6321 347.737 88.333 347.826 88.9462C348.973 93.9398 350.033 98.9333 351.18 103.839C353.74 114.352 356.477 124.865 359.125 135.378L359.39 136.604C359.39 136.954 359.655 137.042 360.008 137.042C365.216 137.042 370.424 137.13 375.632 137.13C375.721 137.13 375.809 137.13 375.809 137.13C375.897 137.042 376.074 136.954 376.074 136.867V136.779L376.515 135.553C383.577 112.512 390.639 89.5595 397.701 66.519C392.316 66.519 386.932 66.4314 381.547 66.4314Z" fill="white"/>
<path d="M748.243 95.8671C746.212 92.8884 743.476 90.6983 740.21 89.0338C739.945 88.8585 739.68 88.7709 739.327 88.5081C746.036 83.2517 748.861 76.3309 748.243 67.9207L748.154 67.3074C747.889 66.1685 747.713 65.1173 747.36 63.9784C744.888 55.9186 739.592 50.5746 731.559 48.034C728.116 46.9828 724.673 46.3695 721.054 46.2819C710.814 46.1067 700.662 46.1067 690.422 46.1067C687.597 46.1067 685.832 48.034 685.832 50.8374C685.832 55.1301 685.832 59.5104 685.832 63.8032V73.8779H685.744C685.744 94.991 685.744 116.104 685.744 137.305C686.097 137.305 686.362 137.305 686.538 137.305C697.308 137.305 708.077 137.305 718.847 137.305C724.143 137.305 729.352 136.779 734.383 135.29C742.593 132.837 748.066 127.581 750.891 119.608C753.892 111.373 753.451 103.314 748.243 95.8671ZM732 68.7967C732.441 70.7241 732.53 72.6514 732.088 74.5787C731.294 78.2582 728.91 80.536 725.468 81.85C725.291 81.9377 725.026 81.9377 724.761 81.9377C717.434 81.9377 710.108 81.9377 702.869 81.9377C702.693 81.9377 702.428 81.9377 702.163 81.9377C702.163 77.2945 702.163 72.6514 702.163 68.0083V67.3074C702.163 65.2049 702.163 63.1899 702.163 61.0874C702.428 61.0874 702.693 61.0874 702.957 61.0874C707.636 61.0874 712.403 60.9998 717.081 61.175C719.641 61.2626 722.201 61.5254 724.673 62.051C727.41 62.5767 729.793 63.9784 731.205 66.519C731.205 66.6066 732 68.7967 732 68.7967ZM735.531 113.739C734.56 117.418 732 119.608 728.557 120.922C725.997 121.886 723.349 122.324 720.612 122.324C714.61 122.412 708.607 122.412 702.516 122.499C702.428 122.499 702.339 122.499 702.075 122.412C702.075 113.739 702.075 105.066 702.075 96.3051C702.339 96.3051 702.604 96.3051 702.957 96.3051C709.401 96.3051 715.846 96.3051 722.378 96.3051C725.291 96.3051 728.204 96.7431 730.676 98.4076C733.765 100.423 735.266 103.401 735.796 106.905C736.149 109.183 736.149 111.461 735.531 113.739Z" fill="white"/>
<path d="M782.317 135.554C782.317 122.238 782.317 108.922 782.317 95.6054C782.317 93.678 782.493 91.7507 782.935 89.9109C783.641 86.5819 785.318 83.9537 788.408 82.2892C790.791 80.9751 793.263 80.7999 795.911 81.0627C798.824 81.3255 801.561 82.114 804.297 83.0777C804.474 83.1653 804.562 83.1653 804.827 83.2529C804.827 82.9901 804.827 82.8148 804.827 82.6396C804.827 79.223 804.827 75.8063 804.827 72.3897C804.827 70.988 804.297 70.0243 803.238 69.1483C802.002 68.1846 800.59 67.4837 799.089 67.1333C794.057 65.8192 788.937 65.7316 783.818 66.7829C776.579 68.3598 771.371 72.3897 768.193 79.0478C766.251 83.1653 765.368 87.6332 765.368 92.1887C765.368 105.592 765.368 118.996 765.368 132.312C765.368 133.626 765.809 134.765 766.692 135.729" fill="#030041"/>
<path d="M768.193 136.955C768.811 137.042 769.517 137.305 770.135 137.305C774.107 137.305 778.08 137.305 781.964 137.305C782.052 137.305 782.052 137.305 782.14 137.305" fill="#030041"/>
<path d="M782.317 95.5167C782.317 93.5894 782.493 91.6621 782.935 89.8223C783.641 86.4933 785.318 83.8651 788.408 82.2006C790.791 80.8865 793.263 80.7113 795.911 80.9741C798.824 81.2369 801.561 82.0254 804.297 82.989C804.474 83.0766 804.562 83.0766 804.827 83.1642C804.827 82.9014 804.827 82.7262 804.827 82.551C804.827 79.1344 804.827 75.7177 804.827 72.3011C804.827 70.8994 804.297 69.9357 803.238 69.0596C802.002 68.096 800.59 67.3951 799.089 67.0447C794.057 65.7306 788.937 65.643 783.818 66.6943C776.579 68.2712 771.371 72.3011 768.193 78.9591C766.251 83.0766 765.368 87.5446 765.368 92.1001C765.368 105.504 765.368 118.908 765.368 132.224C765.368 133.538 765.809 134.677 766.692 135.64C766.692 135.64 767.398 136.516 768.458 136.867C769.164 137.042 769.782 137.217 770.4 137.217C774.372 137.217 778.344 137.217 782.229 137.217H782.493L782.317 95.5167Z" fill="white"/>
<path d="M1043.08 95.5167C1043.08 93.5894 1043.26 91.6621 1043.7 89.8223C1044.41 86.4933 1046.08 83.8651 1049.17 82.2006C1051.56 80.8865 1054.03 80.7113 1056.68 80.9741C1059.59 81.2369 1062.33 82.0254 1065.06 82.989C1065.24 83.0766 1065.33 83.0766 1065.59 83.1642C1065.59 82.9014 1065.59 82.7262 1065.59 82.551C1065.59 79.1344 1065.59 75.7177 1065.59 72.3011C1065.59 70.8994 1065.06 69.9357 1064 69.0596C1062.77 68.096 1061.36 67.3951 1059.85 67.0447C1054.82 65.7306 1049.7 65.643 1044.58 66.6943C1037.34 68.2712 1032.14 72.3011 1028.96 78.9591C1027.02 83.0766 1026.13 87.5446 1026.13 92.1001C1026.13 105.504 1026.13 118.908 1026.13 132.224C1026.13 133.538 1026.57 134.677 1027.46 135.64C1027.46 135.64 1028.16 136.516 1029.22 136.867C1029.93 137.042 1030.55 137.217 1031.16 137.217C1035.14 137.217 1039.11 137.217 1042.99 137.217H1043.26L1043.08 95.5167Z" fill="white"/>
<path d="M843.933 66.1685C825.837 66.1685 811.095 78.959 811.095 96.8306V106.555C811.095 124.514 825.837 137.217 843.933 137.217C862.03 137.217 876.772 124.514 876.772 106.555V96.8306C876.772 78.959 862.03 66.1685 843.933 66.1685ZM859.47 107.694C859.47 116.104 852.496 121.798 843.933 121.798C835.459 121.798 828.397 116.192 828.397 107.694V95.6918C828.397 87.2816 835.37 81.5872 843.933 81.5872C852.408 81.5872 859.47 87.194 859.47 95.6918V107.694Z" fill="white"/>
<path d="M1006.45 75.63C1003.89 72.739 1000.71 70.4612 997.179 68.9719C993.118 67.3074 988.793 66.4313 984.467 66.6065C979.436 66.5189 974.492 67.4826 969.814 69.4099C965.841 71.1621 962.222 73.8778 959.486 77.1193C956.661 80.4483 954.63 84.303 953.483 88.5081C952.159 92.976 951.541 97.7068 951.541 102.35C951.453 107.081 952.159 111.724 953.571 116.192C954.895 120.397 957.102 124.164 960.104 127.318C963.193 130.559 967.166 133.1 971.403 134.677C977.141 136.604 983.232 137.305 989.146 136.604C1000.36 135.202 1005.21 130.91 1008.57 126.442C1014.48 118.557 1012.8 117.243 1012.8 117.243H999.916C998.503 117.243 995.414 123.2 985.968 123.2C979.436 123.2 976.876 122.237 973.698 119.17C970.697 116.542 969.019 112.249 968.666 106.555H1012.63C1013.86 106.555 1014.13 105.767 1014.22 104.54C1014.48 99.6341 1014.75 92.8008 1012.27 85.4419C1010.95 81.9376 1009.01 78.521 1006.45 75.63ZM968.666 94.0273C969.372 89.7346 970.873 86.3179 973.168 83.7774C975.728 80.974 979.171 79.6599 984.026 79.6599C986.145 79.5723 988.263 80.0103 990.205 80.974C991.794 81.7624 993.295 82.9013 994.443 84.3906C995.59 85.8799 996.473 87.632 997.003 89.4718C997.444 90.9611 997.709 92.538 997.885 94.1149H968.666V94.0273Z" fill="white"/>
<path d="M1278.25 75.63C1275.69 72.739 1272.51 70.4612 1268.98 68.9719C1264.92 67.3074 1260.59 66.4313 1256.27 66.6065C1251.24 66.5189 1246.29 67.4826 1241.61 69.4099C1237.64 71.1621 1234.02 73.8778 1231.29 77.1193C1228.46 80.4483 1226.43 84.303 1225.28 88.5081C1223.96 92.976 1223.34 97.7068 1223.34 102.35C1223.25 107.081 1223.96 111.724 1225.37 116.192C1226.7 120.397 1228.9 124.164 1231.9 127.318C1234.99 130.559 1238.97 133.1 1243.2 134.677C1248.94 136.604 1255.03 137.305 1260.95 136.604C1272.16 135.202 1277.01 130.91 1280.37 126.442C1286.28 118.557 1284.6 117.243 1284.6 117.243H1271.72C1270.3 117.243 1267.21 123.2 1257.77 123.2C1251.24 123.2 1248.68 122.237 1245.5 119.17C1242.5 116.542 1240.82 112.249 1240.47 106.555H1284.43C1285.66 106.555 1285.93 105.767 1286.02 104.54C1286.28 99.6341 1286.55 92.8008 1284.07 85.4419C1282.75 81.9376 1280.81 78.521 1278.25 75.63ZM1240.47 94.0273C1241.17 89.7346 1242.67 86.3179 1244.97 83.7774C1247.53 80.974 1250.97 79.6599 1255.83 79.6599C1257.94 79.5723 1260.06 80.0103 1262.01 80.974C1263.59 81.7624 1265.09 82.9013 1266.24 84.3906C1267.39 85.8799 1268.27 87.632 1268.8 89.4718C1269.24 90.9611 1269.51 92.538 1269.69 94.1149H1240.47V94.0273Z" fill="white"/>
<path d="M1116.17 91.7496C1116.26 89.3842 1116 87.1065 1115.12 85.0039C1114.14 82.8138 1112.2 81.5873 1110.08 80.7988C1107.08 79.6599 1103.9 79.5723 1100.73 79.5723C1094.28 79.5723 1088.1 81.1493 1081.92 82.551C1080.16 82.989 1079.72 82.7262 1079.63 80.974C1079.54 77.3822 1079.54 73.7903 1079.63 70.2861C1079.63 68.972 1080.07 68.4463 1081.48 68.2711C1085.63 67.6579 1089.87 66.957 1094.02 66.519C1097.55 66.1686 1101.08 65.9058 1104.61 65.9058C1109.55 65.9058 1114.5 66.6066 1119.18 68.4463C1127.21 71.6002 1131.71 77.5574 1132.95 85.88C1133.3 88.0701 1133.39 90.2603 1133.39 92.3629C1133.39 103.226 1133.39 114.089 1133.39 124.952C1133.39 127.756 1132.33 129.946 1130.21 131.61C1127.56 133.713 1124.47 134.852 1121.29 135.553C1110.52 137.918 1099.76 138.269 1089.16 135.29C1084.84 134.063 1081.04 131.873 1078.13 128.281C1075.21 124.69 1073.89 120.484 1073.71 116.017C1073.45 106.818 1077.69 100.247 1085.63 95.8671C1090.31 93.3265 1095.34 91.9248 1100.64 91.7496C1105.67 91.4868 1110.7 91.7496 1115.73 91.8372C1115.73 91.7496 1115.91 91.7496 1116.17 91.7496ZM1116.09 104.978C1113.61 104.803 1111.32 104.628 1109.02 104.54C1105.23 104.365 1101.34 104.54 1097.72 105.767C1095.61 106.467 1093.75 107.519 1092.52 109.446C1088.81 115.316 1092.25 122.587 1099.14 123.463C1104.35 124.164 1109.64 123.901 1114.85 123.113C1116.35 122.85 1116.17 123.113 1116.17 121.448C1116.17 116.367 1116.17 111.198 1116.09 106.117C1116.09 105.854 1116.09 105.504 1116.09 104.978Z" fill="white"/>
<path d="M1193.77 129.858C1191.65 130.559 1189.62 131.435 1187.5 131.873C1175.5 134.414 1164.37 132.749 1154.93 124.514C1148.75 119.083 1145.75 112.162 1145.75 103.927C1145.75 99.9845 1145.48 95.9546 1145.92 92.1C1147.07 81.4996 1152.9 73.7902 1162.52 69.4975C1175.41 63.7155 1188.12 64.504 1199.68 72.8266C1207.1 78.1706 1210.81 85.7047 1210.81 94.8157C1210.89 106.818 1210.81 118.82 1210.81 130.734C1210.81 136.078 1210.28 141.335 1208.25 146.416C1204.98 154.738 1198.8 160.17 1190.41 162.886C1181.32 165.777 1172.23 165.602 1163.23 162.273C1156.6 159.82 1152.54 154.738 1149.45 148.694C1149.37 148.431 1149.28 148.168 1149.19 147.905C1148.66 146.328 1148.92 145.978 1150.6 145.978C1154.22 145.978 1157.75 145.978 1161.37 145.978C1162.08 145.978 1162.87 146.241 1163.4 146.679C1168.96 151.847 1175.58 152.548 1182.56 151.059C1188.3 149.832 1191.56 145.803 1192.97 140.196C1193.94 136.954 1193.86 133.45 1193.77 129.858ZM1193.68 99.5465C1193.68 97.7068 1193.68 95.867 1193.68 94.0273C1193.68 89.1213 1191.47 85.3543 1187.24 82.8137C1182.56 80.0979 1177.61 79.7475 1172.49 81.3244C1166.05 83.3393 1162.7 87.9825 1162.7 94.6405C1162.7 98.0572 1162.7 101.474 1162.7 104.89C1162.7 109.884 1164.81 113.651 1169.14 116.192C1173.91 118.995 1179.11 119.346 1184.32 117.506C1190.5 115.403 1193.59 110.848 1193.59 104.365C1193.68 102.876 1193.68 101.211 1193.68 99.5465Z" fill="white"/>
<path d="M948.451 136.779C948.186 136.779 948.01 136.779 947.745 136.779C942.978 136.779 938.211 136.779 933.356 136.779C930.531 136.779 928.324 135.64 926.735 133.363C920.38 124.514 913.936 115.754 907.491 106.905C907.315 106.73 907.227 106.555 906.962 106.205C906.432 106.73 906.079 107.256 905.549 107.606C904.225 108.57 903.96 109.796 903.96 111.373C904.049 119.258 903.96 127.055 903.96 134.939C903.96 135.115 903.96 135.29 903.96 135.465C903.96 136.779 903.96 136.779 902.636 136.779C899.105 136.779 895.574 136.779 892.131 136.779C889.748 136.779 887.806 135.29 887.365 133.1C887.276 132.574 887.276 132.048 887.276 131.523C887.276 110.147 887.276 88.7709 887.276 67.395C887.276 60.3865 887.276 53.4656 887.276 46.4571C887.276 46.1943 887.276 45.9315 887.276 45.5811C887.541 45.5811 887.718 45.5811 887.894 45.5811C891.602 45.5811 895.398 45.5811 899.105 45.5811C901.665 45.5811 903.431 46.9828 903.96 49.2605C904.049 49.5233 904.049 49.8738 904.049 50.2242C904.049 55.393 903.96 60.5617 904.049 65.8181C904.049 73.7903 904.049 81.6748 904.137 89.647C904.137 89.7346 904.137 89.8222 904.137 90.085C904.402 89.9098 904.49 89.7346 904.667 89.647C910.316 84.0402 915.878 78.3458 921.527 72.739C922.94 71.3373 924.705 70.7241 926.647 70.7241C931.767 70.7241 936.887 70.7241 942.007 70.7241C942.095 70.7241 942.272 70.7241 942.537 70.8117C942.272 71.0745 942.184 71.2497 941.919 71.4249C934.062 79.3095 926.206 87.194 918.261 95.0786C917.82 95.5166 917.82 95.7794 918.173 96.3051C928.06 109.446 937.946 122.587 947.745 135.728C948.01 136.078 948.275 136.429 948.539 136.692C948.539 136.692 948.539 136.779 948.451 136.779Z" fill="white"/>
</g>
<defs>
<clipPath id="clip0_39_2495">
<rect width="100.428" height="179.933" fill="white"/>
</clipPath>
<clipPath id="clip1_39_2495">
<rect width="1142.46" height="121.948" fill="white" transform="translate(143.468 43.0405)"/>
</clipPath>
</defs>
</svg>
